<svg t="1770962805552" class="icon" viewBox="0 0 1024 1024" version="1.1" xmlns="http://www.w3.org/2000/svg" p-id="2190" width="200" height="200"><path d="M488.19 156.502l-61.52-17.64a31.896 31.896 0 0 0-8.84-1.22l0.004-0.028h-159.586l-0.004 0.028c-13.91 0.004-26.714 9.122-30.74 23.16L33.454 837.53c-4.872 16.988 4.952 34.71 21.94 39.582l61.52 17.64c2.95 0.846 5.918 1.222 8.84 1.22l-0.002 0.028h159.586l0.004-0.028c13.91-0.004 26.714-9.122 30.74-23.16l194.048-676.728c4.872-16.988-4.95-34.71-21.94-39.582z" fill="#E64178" p-id="2191"></path><path d="M116.916 894.752l-61.52-17.64c-16.988-4.872-26.812-22.592-21.94-39.58l194.048-676.728c4.872-16.988 22.592-26.812 39.58-21.94l61.52 17.64c16.988 4.872 26.812 22.592 21.94 39.58L156.496 872.812c-4.87 16.988-22.592 26.812-39.58 21.94z" fill="#FF6E91" p-id="2192"></path><path d="M639.794 896h-224c-17.674 0-32-14.326-32-32V160c0-17.674 14.326-32 32-32h224c17.674 0 32 14.326 32 32v704c0 17.674-14.328 32-32 32z" fill="#463C4B" p-id="2193"></path><path d="M479.792 896h-64c-17.674 0-32-14.326-32-32V160c0-17.674 14.326-32 32-32h64c17.674 0 32 14.326 32 32v704c0 17.674-14.326 32-32 32z" fill="#555A6E" p-id="2194"></path><path d="M959.794 896h-224c-17.674 0-32-14.326-32-32V160c0-17.674 14.326-32 32-32h224c17.674 0 32 14.326 32 32v704c0 17.674-14.328 32-32 32z" fill="#463C4B" p-id="2195"></path><path d="M799.794 896h-64c-17.674 0-32-14.326-32-32V160c0-17.674 14.326-32 32-32h64c17.674 0 32 14.326 32 32v704c0 17.674-14.328 32-32 32z" fill="#555A6E" p-id="2196"></path></svg>